<svg xmlns="http://www.w3.org/2000/svg" xmlns:xlink="http://www.w3.org/1999/xlink" viewBox="0 0 65.46 54.61"><defs><style>.cls-1{fill:url(#未命名的渐变_63);}</style><linearGradient id="未命名的渐变_63" y1="27.31" x2="65.46" y2="27.31" gradientUnits="userSpaceOnUse"><stop offset="0" stop-color="#ff3cbc"/><stop offset="0.5" stop-color="#7f80ff"/><stop offset="1" stop-color="#00e4ff"/></linearGradient></defs><g id="图层_2" data-name="图层 2"><g id="Layer_1" data-name="Layer 1"><path class="cls-1" d="M44,.11C12.23,2.7-2.71,29.42.4,44.47c2.67,13,13.11,9.78,13.11,9.78,11.93-3.37,10.24-21.75,26.3-24.12,5-.78,10.62-1.21,17.53-4.39C72.34,18,65.8-1.67,44,.11ZM18.62,41.53C16.79,47,10.29,49.16,6,44.41-2.79,32.87,22.87,21.64,32.73,28.6,28.26,29.59,23,31,18.62,41.53Zm22.27-18C32.18,26.27,21,17.4,8.15,29.48c.65-5.54,7.53-18.72,24.92-24C48.92.38,53.72,19.55,40.89,23.56Z"/></g></g></svg>