<?xml version="1.0" encoding="UTF-8"?>
<svg id="Layer_1" data-name="Layer 1" xmlns="http://www.w3.org/2000/svg" viewBox="0 0 734.22 240">
  <defs>
    <style>
      .cls-1 {
        fill: #091720;
      }

      .cls-2 {
        fill: #005eec;
      }
    </style>
  </defs>
  <g>
    <path class="cls-1" d="m238.85,78.7c8.39,0,14.77,1.74,19.13,5.23,4.36,3.49,6.55,8.11,6.55,13.86,0,2.57-.36,5.03-1.07,7.36-.71,2.33-1.83,4.5-3.35,6.5-1.52,2-3.49,3.77-5.89,5.33-2.4,1.56-5.3,2.84-8.68,3.86.88,1.56,1.83,3.44,2.84,5.63,1.01,2.2,2.06,4.57,3.15,7.11,1.08,2.54,2.13,5.19,3.15,7.97,1.01,2.78,1.93,5.52,2.74,8.22h-13.46c-.81-2.44-1.67-4.91-2.55-7.41-.88-2.5-1.8-4.92-2.75-7.26-.95-2.34-1.92-4.53-2.9-6.6-.98-2.06-1.95-3.91-2.9-5.53-.61.07-1.35.1-2.23.1h-8.23l-3.4,14.24c-1.74,7.31-8.82,13.89-16.33,13.89h0l17.09-70.76c3.25-.68,6.55-1.13,9.9-1.37,3.35-.24,6.41-.36,9.19-.36Zm12.69,20.51c0-3.72-1.36-6.28-4.06-7.66-2.71-1.39-6.33-2.08-10.86-2.08-.95,0-1.96.04-3.05.1-1.08.07-2.17.17-3.25.31l-5.47,22.94h5.68c3.04,0,5.85-.25,8.42-.76s4.79-1.3,6.65-2.39c1.86-1.08,3.31-2.49,4.36-4.21,1.05-1.73,1.57-3.81,1.57-6.24Z"/>
    <path class="cls-1" d="m275.78,149.81h-11.86l12.34-51.24h11.86l-12.34,51.24Zm8.82-56.51c-1.76,0-3.3-.52-4.61-1.57-1.31-1.04-1.96-2.61-1.96-4.7,0-2.42.83-4.41,2.5-5.98,1.67-1.57,3.58-2.35,5.73-2.35,1.76,0,3.31.54,4.65,1.62,1.34,1.08,2.01,2.66,2.01,4.75,0,2.42-.85,4.39-2.55,5.93-1.7,1.54-3.63,2.3-5.78,2.3Z"/>
    <path class="cls-1" d="m304.13,141.48c3.14,0,5.62-.51,7.45-1.52,1.83-1.01,2.74-2.56,2.74-4.65,0-1.7-.59-3.05-1.76-4.07-1.18-1.01-3.23-2.2-6.17-3.58-1.57-.72-3.02-1.47-4.36-2.25-1.34-.78-2.5-1.7-3.48-2.74-.98-1.04-1.76-2.27-2.35-3.67-.59-1.4-.88-3.09-.88-5.05,0-5.09,1.86-9.14,5.58-12.15,3.72-3,9.11-4.51,16.17-4.51,3.26,0,6.19.34,8.77,1.03,2.58.69,4.52,1.39,5.83,2.11l-4.21,9.21c-1.11-.65-2.71-1.29-4.8-1.91-2.09-.62-4.28-.93-6.57-.93-1.11,0-2.2.1-3.28.29-1.08.2-2.04.52-2.89.98-.85.46-1.55,1.09-2.11,1.91-.56.82-.83,1.81-.83,2.99,0,1.5.6,2.73,1.81,3.67,1.21.95,2.95,1.94,5.24,2.99,2.15.98,3.98,1.93,5.49,2.84,1.5.92,2.74,1.94,3.72,3.09.98,1.14,1.7,2.42,2.16,3.82.46,1.41.69,3.09.69,5.05,0,2.42-.49,4.65-1.47,6.71-.98,2.06-2.4,3.82-4.26,5.29-1.86,1.47-4.16,2.63-6.91,3.48-2.74.85-5.88,1.27-9.41,1.27-2.42,0-4.59-.16-6.51-.49-1.93-.33-3.61-.7-5.05-1.13-1.44-.42-2.65-.86-3.63-1.32-.98-.46-1.73-.85-2.25-1.18l4.21-9.31c.46.26,1.13.61,2.01,1.03.88.43,1.89.83,3.04,1.22,1.14.39,2.42.73,3.82,1.03,1.4.29,2.89.44,4.46.44Z"/>
    <path class="cls-1" d="m342.77,149.81h-11.86l12.34-51.24h11.86l-12.34,51.24Zm8.82-56.51c-1.76,0-3.3-.52-4.61-1.57-1.31-1.04-1.96-2.61-1.96-4.7,0-2.42.83-4.41,2.5-5.98,1.67-1.57,3.58-2.35,5.73-2.35,1.76,0,3.31.54,4.65,1.62,1.34,1.08,2.01,2.66,2.01,4.75,0,2.42-.85,4.39-2.55,5.93-1.7,1.54-3.63,2.3-5.78,2.3Z"/>
    <path class="cls-1" d="m366.85,100.72c2.61-.78,5.6-1.52,8.96-2.21,3.36-.68,7.04-1.03,11.02-1.03,6.01,0,10.42,1.47,13.23,4.41,2.81,2.94,4.21,6.89,4.21,11.86,0,1.37-.11,2.83-.34,4.36-.23,1.54-.51,3.12-.83,4.75l-6.47,26.94h-11.84l6.06-25.67c.33-1.44.65-2.91.98-4.41.33-1.5.52-2.94.59-4.31.06-2.29-.47-4.18-1.62-5.68-1.14-1.5-3.38-2.25-6.71-2.25-2.81,0-5.23.29-7.25.88l-9.83,41.45h-11.93l11.76-49.09Z"/>
    <path class="cls-1" d="m428.88,158.92c7.27-5.15,8.33-9.27,9.18-13.12l.29-1.37c-1.31.65-2.87,1.26-4.7,1.81-1.83.56-3.76.83-5.78.83-5.75,0-10.01-1.55-12.79-4.65-2.78-3.1-4.16-7.23-4.16-12.39,0-4.7.82-9.05,2.45-13.03,1.63-3.98,3.93-7.43,6.91-10.34,2.97-2.91,6.55-5.18,10.73-6.81,4.18-1.63,8.82-2.45,13.91-2.45,2.48,0,5.14.28,7.99.83,2.84.56,5.4,1.45,7.69,2.69l-10.39,43.5c-.92,3.86-2.08,7.27-3.48,10.24-1.4,2.97-3.25,5.45-5.54,7.45-2.29,1.99-5.11,3.51-8.48,4.56-3.36,1.04-7.43,1.57-12.2,1.57-3.46,0-6.58-.38-9.36-1.13-2.78-.75-5.21-1.68-7.3-2.79,0,0,16.98.29,25.01-5.4Zm1.91-21.45c1.76,0,3.57-.33,5.43-.98,1.86-.65,3.4-1.47,4.64-2.45l6.32-26.16c-1.5-.33-2.97-.49-4.41-.49-3.01,0-5.73.56-8.19,1.67-2.45,1.11-4.56,2.61-6.32,4.51-1.76,1.9-3.14,4.1-4.12,6.61-.98,2.52-1.47,5.21-1.47,8.08s.62,5.13,1.86,6.76c1.24,1.63,3.32,2.45,6.26,2.45Z"/>
    <path class="cls-1" d="m516.38,90.47c.6,4.81,3.95,27.67,4.36,31.5.41,3.83.82,7.38,1.23,10.67,1.92-3.62,3.9-7.6,5.96-11.95,2.05-4.34,4.11-8.83,6.17-13.49,2.05-4.65,4.08-9.42,6.06-14.3,1.99-4.89,3.9-9.69,5.76-14.41h13.75c-5.41,13.19-10.87,25.67-16.38,37.43-5.51,11.76-11.35,22.97-17.51,33.64h-12.55c-.54-3.69-1.07-7.31-1.58-10.87-.51-3.55-.99-7.16-1.43-10.82-.44-3.66-.85-7.38-1.22-11.18-.37-3.79-.73-7.74-1.07-11.84-4.27,7.86-8.48,15.47-12.65,22.82-4.17,7.35-8.59,14.65-13.27,21.89h-12.56c-.53-5.95-.92-11.86-1.15-17.74-.23-5.88-.35-11.9-.35-18.05,0-11.21.39-22.97,1.17-35.28h12.92c-.41,6.56-.75,13.07-1.03,19.54-.27,6.46-.41,13.01-.41,19.64v7.43c0,2.5.07,5.01.2,7.54,2.12-3.49,4.32-7.16,6.58-11.02,2.26-3.86,4.49-7.78,6.68-11.74,2.19-3.96,4.34-7.93,6.43-11.9,2.09-3.96,2.77-3.87,4.62-7.5h11.28Z"/>
    <path class="cls-1" d="m594.45,129.92c-.2.72-.39,1.9-.59,3.53-.2,1.63-.29,3.17-.29,4.6,0,1.9.16,3.74.49,5.54.33,1.8.85,3.61,1.57,5.44,0,0-8.77,1.03-12.44-3.43-1.63,1.44-3.64,2.73-6.03,3.87-2.39,1.14-5.08,1.72-8.08,1.72s-5.7-.51-7.89-1.52c-2.19-1.01-3.97-2.42-5.34-4.21-1.37-1.8-2.39-3.9-3.04-6.32-.65-2.42-.98-5.03-.98-7.84,0-4.77.85-9.21,2.55-13.33,1.7-4.11,4.07-7.67,7.1-10.68,3.04-3,6.65-5.37,10.83-7.1,4.18-1.73,8.75-2.6,13.72-2.6,2.55,0,5.11.21,7.69.64,2.58.43,5.18,1.22,7.79,2.4l-7.05,29.3Zm-6.44-22.14c-1.24-.26-2.65-.39-4.22-.39-2.94,0-5.66.64-8.14,1.91-2.48,1.27-4.63,2.97-6.42,5.09-1.8,2.12-3.19,4.56-4.17,7.3-.98,2.74-1.47,5.62-1.47,8.62,0,1.5.13,2.91.39,4.21.26,1.31.7,2.45,1.32,3.43.62.98,1.45,1.76,2.5,2.35,1.04.59,2.38.88,4.02.88,2.09,0,3.93-.44,5.54-1.32,1.6-.88,3.09-2.07,4.46-3.58.06-1.7.21-3.3.44-4.8.23-1.5.54-3,.93-4.51l4.83-19.2Z"/>
    <path class="cls-1" d="m615.19,149.81c-1.67-6.66-3.16-14.39-4.49-23.17-1.33-8.79-2.2-18.14-2.6-28.07h12.15c.07,2.87.18,5.98.35,9.31.17,3.33.38,6.68.65,10.04.27,3.36.58,6.61.94,9.75.36,3.14.78,5.98,1.25,8.52,1.7-2.22,3.54-4.88,5.5-7.99,1.96-3.1,3.86-6.37,5.7-9.8,1.83-3.43,3.5-6.87,5.01-10.34,1.51-3.46,2.72-6.63,3.63-9.5h12.35c-1.57,4.51-3.54,9.15-5.89,13.91-2.36,4.77-4.91,9.41-7.66,13.91-2.75,4.51-5.58,8.79-8.5,12.84-2.91,4.05-5.68,7.58-8.3,10.58h-10.09Z"/>
    <path class="cls-1" d="m654.29,131.29c0-4.38.7-8.61,2.11-12.69,1.4-4.08,3.43-7.71,6.08-10.88,2.65-3.17,5.83-5.7,9.55-7.59,3.72-1.89,7.9-2.84,12.54-2.84,4.96,0,8.82,1.27,11.56,3.82,2.74,2.55,4.11,5.81,4.11,9.8s-1.01,7.45-3.04,9.99c-2.03,2.55-4.65,4.54-7.89,5.98-3.23,1.44-6.89,2.42-10.97,2.94-4.08.52-8.21.85-12.39.98-.07.13-.1.26-.1.39v.98c0,5.94,2.9,10.54,10.02,12.93,6.52,2.19,15.55,2.84,15.55,2.84-1.57.72-3.79,1.44-6.66,2.15-2.87.72-6.14,1.08-9.8,1.08s-6.8-.52-9.41-1.57c-2.61-1.04-4.75-2.48-6.42-4.31-1.67-1.83-2.89-3.93-3.67-6.32-.78-2.38-1.18-4.95-1.18-7.69Zm28.51-24.3c-1.96,0-3.82.39-5.58,1.18-1.76.78-3.33,1.86-4.7,3.23-1.37,1.37-2.56,2.99-3.58,4.85-1.01,1.86-1.75,3.87-2.21,6.03,7.84-.26,13.54-1.21,17.1-2.84,3.56-1.63,5.34-4.08,5.34-7.35,0-1.31-.47-2.48-1.42-3.53-.95-1.04-2.6-1.57-4.95-1.57Z"/>
  </g>
  <g>
    <path class="cls-2" d="m115.1,127.46c-4.65-11.74-5.71-23.79-3.72-34.4-13.61,19.17-9.34,45.79,9.7,59.72,7.76,5.68,16.79,8.38,25.72,8.31-13.2-5.19-25.21-17.24-31.71-33.63Z"/>
    <path class="cls-2" d="m99.98,145.43c-12.78-28.48-3.62-60.32,20.45-71.13,9.29-4.17,19.44-4.59,29.14-1.91-35.64-16.16-74.41-7.54-86.69,19.32-12.31,26.93,6.66,62,42.38,78.34,9.18,4.2,18.57,6.74,27.67,7.76-13.63-5.25-25.89-16.65-32.95-32.38Z"/>
    <path class="cls-2" d="m124.46,84.46c6.52.77,11.53,5.72,12.67,11.86,1.09,6.2,6.13,11.21,12.7,11.99,8.03.95,15.31-4.79,16.26-12.82.77-6.5-2.85-12.51-8.52-15.07-.7-.31-1.42-.59-2.14-.86-3.79-1.17-7.8-1.75-11.97-1.83-8.76-.16-17.08,2.32-23.8,6.9,1.28-.2,3.45-.33,4.8-.18Z"/>
    <path class="cls-2" d="m143.61,131.17c-13.34-9.76-21.13-23.99-22.34-38.11-3.91,13.71-.71,29.31,9.8,40.94,15,16.61,39.56,19.21,56.67,6.67-14.05,3.52-30.44.5-44.12-9.51Z"/>
    <path class="cls-2" d="m57.73,89.09c-12.53,9.73-19.48,23.69-17.11,37.79,2.85,16.96,20.51,30.79,37.47,34.21-20.22-14.53-37.03-42.05-20.35-72Z"/>
  </g>
</svg>