<?xml version="1.0" encoding="UTF-8"?>
<svg id="Layer_1" data-name="Layer 1" xmlns="http://www.w3.org/2000/svg" viewBox="0 0 734.22 240">
  <defs>
    <style>
      .cls-1 {
        fill: #091720;
      }

      .cls-2 {
        fill: #005eec;
      }
    </style>
  </defs>
  <g>
    <path class="cls-2" d="m171.27,127.31c-6-15.14-7.37-30.69-4.8-44.38-17.56,24.73-12.05,59.07,12.51,77.03,10.01,7.33,21.66,10.81,33.18,10.73-17.03-6.69-32.52-22.24-40.9-43.38Z"/>
    <path class="cls-2" d="m151.76,150.49c-16.49-36.74-4.67-77.82,26.38-91.75,11.98-5.38,25.07-5.92,37.59-2.47-45.98-20.84-95.98-9.73-111.83,24.92-15.88,34.74,8.59,79.98,54.67,101.05,11.84,5.41,23.96,8.7,35.7,10.01-17.58-6.77-33.4-21.48-42.5-41.77Z"/>
    <path class="cls-2" d="m183.34,71.83c8.41,1,14.88,7.38,16.35,15.29,1.41,7.99,7.9,14.46,16.38,15.47,10.36,1.23,19.74-6.18,20.97-16.53.99-8.39-3.68-16.14-10.99-19.44-.91-.4-1.83-.76-2.76-1.11-4.88-1.5-10.06-2.26-15.44-2.36-11.31-.21-22.03,2.99-30.7,8.91,1.65-.26,4.45-.43,6.19-.23Z"/>
    <path class="cls-2" d="m208.04,132.09c-17.21-12.59-27.26-30.95-28.82-49.16-5.04,17.69-.91,37.81,12.64,52.81,19.35,21.42,51.03,24.78,73.1,8.61-18.13,4.54-39.27.64-56.91-12.27Z"/>
    <path class="cls-2" d="m97.27,77.81c-16.17,12.55-25.13,30.56-22.08,48.75,3.67,21.87,26.46,39.72,48.33,44.14-26.09-18.74-47.77-54.25-26.25-92.88Z"/>
  </g>
  <g>
    <g>
      <path class="cls-1" d="m319.22,54.53c5.99,0,10.55,1.25,13.67,3.73,3.12,2.49,4.68,5.79,4.68,9.9,0,1.84-.25,3.59-.76,5.26-.51,1.67-1.3,3.21-2.39,4.64-1.09,1.43-2.49,2.69-4.21,3.81-1.72,1.11-3.78,2.03-6.2,2.76.63,1.11,1.3,2.45,2.03,4.02.72,1.57,1.47,3.26,2.25,5.08.77,1.81,1.52,3.71,2.25,5.69.72,1.98,1.38,3.94,1.96,5.87h-9.61c-.58-1.74-1.19-3.5-1.82-5.29-.63-1.79-1.29-3.52-1.97-5.18-.68-1.67-1.37-3.24-2.07-4.71-.7-1.47-1.39-2.79-2.07-3.95-.43.05-.97.07-1.6.07h-5.87l-2.43,10.17c-1.25,5.22-6.3,9.92-11.66,9.92h0l12.21-50.54c2.32-.48,4.68-.81,7.07-.98,2.39-.17,4.58-.25,6.56-.25Zm9.06,14.65c0-2.66-.97-4.48-2.9-5.47-1.93-.99-4.52-1.49-7.76-1.49-.68,0-1.4.03-2.18.07-.77.05-1.55.12-2.32.22l-3.91,16.39h4.06c2.17,0,4.18-.18,6.02-.54s3.42-.93,4.75-1.7c1.33-.77,2.37-1.78,3.12-3.01.75-1.23,1.12-2.72,1.12-4.46Z"/>
      <path class="cls-1" d="m345.52,105.28h-8.77l9.14-37.92h8.77l-9.14,37.92Zm6.53-41.82c-1.31,0-2.44-.39-3.41-1.16-.97-.77-1.45-1.93-1.45-3.48,0-1.79.62-3.26,1.85-4.42,1.23-1.16,2.65-1.74,4.24-1.74,1.3,0,2.45.4,3.44,1.2.99.8,1.49,1.97,1.49,3.52,0,1.79-.63,3.25-1.89,4.39-1.26,1.14-2.68,1.7-4.28,1.7Z"/>
      <path class="cls-1" d="m366.5,99.12c2.32,0,4.16-.37,5.51-1.12,1.35-.75,2.03-1.9,2.03-3.44,0-1.26-.44-2.26-1.3-3.01-.87-.75-2.39-1.63-4.57-2.65-1.16-.53-2.24-1.09-3.23-1.67-.99-.58-1.85-1.26-2.57-2.03-.72-.77-1.3-1.68-1.74-2.72-.44-1.04-.65-2.28-.65-3.73,0-3.77,1.38-6.77,4.13-8.99,2.76-2.22,6.74-3.34,11.96-3.34,2.42,0,4.58.25,6.49.76,1.91.51,3.35,1.03,4.31,1.56l-3.12,6.82c-.82-.48-2.01-.95-3.55-1.41-1.55-.46-3.17-.69-4.86-.69-.82,0-1.63.07-2.43.22-.8.14-1.51.39-2.14.72-.63.34-1.15.81-1.56,1.41-.41.61-.62,1.34-.62,2.21,0,1.11.45,2.02,1.34,2.72.89.7,2.19,1.44,3.88,2.21,1.59.73,2.95,1.43,4.06,2.1,1.11.68,2.03,1.44,2.75,2.28.73.85,1.26,1.79,1.6,2.83.34,1.04.51,2.28.51,3.73,0,1.79-.36,3.44-1.09,4.97-.72,1.52-1.78,2.83-3.15,3.91-1.38,1.09-3.08,1.95-5.11,2.57-2.03.63-4.35.94-6.96.94-1.79,0-3.4-.12-4.82-.36-1.43-.24-2.67-.52-3.73-.83-1.06-.31-1.96-.64-2.68-.98-.72-.34-1.28-.63-1.67-.87l3.12-6.89c.34.19.83.45,1.49.76.65.31,1.4.62,2.25.91.84.29,1.79.54,2.83.76,1.04.22,2.14.33,3.3.33Z"/>
      <path class="cls-1" d="m395.1,105.28h-8.77l9.14-37.92h8.77l-9.14,37.92Zm6.53-41.82c-1.31,0-2.44-.39-3.41-1.16-.97-.77-1.45-1.93-1.45-3.48,0-1.79.62-3.26,1.85-4.42,1.23-1.16,2.65-1.74,4.24-1.74,1.3,0,2.45.4,3.44,1.2.99.8,1.49,1.97,1.49,3.52,0,1.79-.63,3.25-1.89,4.39-1.26,1.14-2.68,1.7-4.28,1.7Z"/>
      <path class="cls-1" d="m412.91,68.96c1.93-.58,4.14-1.12,6.63-1.63,2.49-.51,5.21-.76,8.16-.76,4.45,0,7.71,1.09,9.79,3.26,2.08,2.18,3.12,5.1,3.12,8.77,0,1.02-.08,2.09-.25,3.23-.17,1.14-.37,2.31-.62,3.52l-4.79,19.94h-8.76l4.49-19c.24-1.06.48-2.15.72-3.26.24-1.11.39-2.17.44-3.19.05-1.69-.35-3.09-1.2-4.21-.85-1.11-2.5-1.67-4.97-1.67-2.08,0-3.87.22-5.37.65l-7.27,30.67h-8.83l8.7-36.33Z"/>
      <path class="cls-1" d="m458.81,112.02c5.38-3.81,6.17-6.86,6.8-9.71l.22-1.02c-.97.48-2.13.93-3.48,1.34-1.35.41-2.78.62-4.28.62-4.25,0-7.41-1.15-9.46-3.44-2.06-2.3-3.08-5.35-3.08-9.17,0-3.48.6-6.69,1.81-9.64,1.21-2.95,2.91-5.5,5.11-7.65,2.2-2.15,4.85-3.83,7.94-5.04,3.09-1.21,6.53-1.81,10.3-1.81,1.84,0,3.81.21,5.91.62,2.1.41,4,1.08,5.69,1.99l-7.69,32.19c-.68,2.85-1.54,5.38-2.57,7.58-1.04,2.2-2.41,4.04-4.1,5.51-1.69,1.47-3.78,2.6-6.27,3.37-2.49.77-5.5,1.16-9.03,1.16-2.56,0-4.87-.28-6.92-.83-2.06-.56-3.86-1.25-5.4-2.07,0,0,12.57.22,18.51-3.99Zm1.42-15.87c1.3,0,2.64-.24,4.02-.73,1.37-.48,2.52-1.09,3.44-1.81l4.68-19.36c-1.11-.24-2.2-.36-3.26-.36-2.23,0-4.24.41-6.06,1.23-1.81.82-3.37,1.93-4.68,3.34-1.3,1.4-2.32,3.03-3.05,4.89-.72,1.86-1.09,3.86-1.09,5.98s.46,3.8,1.37,5c.92,1.21,2.46,1.81,4.63,1.81Z"/>
      <path class="cls-1" d="m524.73,63.51c.42,3.4,2.79,19.56,3.08,22.27.29,2.71.58,5.22.87,7.54,1.36-2.56,2.76-5.38,4.21-8.45,1.45-3.07,2.91-6.25,4.36-9.53,1.45-3.29,2.88-6.66,4.29-10.11,1.41-3.46,2.76-6.85,4.07-10.19h9.72c-3.82,9.33-7.69,18.15-11.58,26.47-3.9,8.31-8.02,16.24-12.38,23.78h-8.87c-.38-2.61-.76-5.17-1.12-7.69-.36-2.51-.7-5.06-1.01-7.65-.31-2.59-.6-5.22-.86-7.9-.26-2.68-.51-5.47-.76-8.37-3.02,5.56-6,10.94-8.94,16.13-2.95,5.2-6.07,10.36-9.38,15.48h-8.88c-.38-4.21-.65-8.39-.81-12.54-.17-4.16-.25-8.41-.25-12.76,0-7.93.28-16.24.83-24.94h9.14c-.29,4.64-.53,9.24-.72,13.81-.19,4.57-.29,9.2-.29,13.89v5.26c0,1.77.05,3.54.14,5.33,1.5-2.47,3.05-5.06,4.65-7.79,1.6-2.73,3.17-5.5,4.73-8.3,1.55-2.8,3.07-5.61,4.54-8.41,1.48-2.8,1.96-2.74,3.27-5.3h7.98Z"/>
      <path class="cls-1" d="m581.34,90.56c-.14.53-.29,1.4-.44,2.61-.14,1.21-.22,2.34-.22,3.41,0,1.4.12,2.77.36,4.1.24,1.33.63,2.67,1.16,4.02,0,0-6.49.76-9.21-2.54-1.21,1.06-2.7,2.02-4.46,2.86-1.77.85-3.76,1.27-5.98,1.27s-4.22-.38-5.84-1.12c-1.62-.75-2.94-1.79-3.95-3.12-1.02-1.33-1.77-2.89-2.25-4.68-.48-1.79-.72-3.72-.72-5.8,0-3.53.63-6.82,1.89-9.86,1.26-3.05,3.01-5.68,5.26-7.9,2.25-2.22,4.92-3.98,8.01-5.26,3.09-1.28,6.48-1.92,10.15-1.92,1.89,0,3.78.16,5.69.47,1.91.31,3.83.91,5.76,1.78l-5.22,21.68Zm-4.77-16.39c-.92-.19-1.96-.29-3.12-.29-2.18,0-4.19.47-6.03,1.41-1.84.94-3.42,2.2-4.75,3.77-1.33,1.57-2.36,3.37-3.08,5.4-.73,2.03-1.09,4.16-1.09,6.38,0,1.11.1,2.15.29,3.12.19.97.52,1.81.98,2.54.46.72,1.08,1.3,1.85,1.74.77.44,1.76.65,2.97.65,1.55,0,2.91-.33,4.1-.98,1.18-.65,2.28-1.53,3.3-2.65.05-1.26.16-2.44.33-3.55.17-1.11.4-2.22.69-3.34l3.57-14.21Z"/>
      <path class="cls-1" d="m596.69,105.28c-1.23-4.93-2.34-10.65-3.33-17.15-.99-6.5-1.63-13.43-1.92-20.77h8.99c.05,2.13.13,4.42.26,6.89.12,2.47.28,4.94.48,7.43.2,2.49.43,4.89.7,7.21.27,2.32.58,4.42.92,6.31,1.26-1.64,2.62-3.61,4.07-5.91,1.45-2.3,2.86-4.71,4.22-7.25,1.36-2.54,2.59-5.09,3.71-7.65,1.11-2.56,2.01-4.91,2.69-7.03h9.14c-1.16,3.34-2.62,6.77-4.36,10.3-1.74,3.53-3.63,6.96-5.67,10.3-2.04,3.33-4.13,6.5-6.29,9.5-2.16,3-4.2,5.61-6.14,7.83h-7.47Z"/>
      <path class="cls-1" d="m625.62,91.58c0-3.24.52-6.37,1.56-9.39,1.04-3.02,2.54-5.7,4.5-8.05,1.96-2.34,4.31-4.22,7.07-5.62,2.76-1.4,5.85-2.1,9.28-2.1,3.67,0,6.53.94,8.56,2.83,2.03,1.89,3.05,4.3,3.05,7.25s-.75,5.51-2.25,7.4c-1.5,1.89-3.44,3.36-5.84,4.42-2.39,1.06-5.1,1.79-8.12,2.18-3.02.39-6.08.63-9.17.72-.05.1-.07.19-.07.29v.72c0,4.4,2.15,7.8,7.42,9.57,4.83,1.62,11.51,2.1,11.51,2.1-1.16.53-2.8,1.06-4.93,1.59-2.13.53-4.54.8-7.25.8s-5.03-.39-6.96-1.16c-1.93-.77-3.52-1.84-4.75-3.19-1.23-1.35-2.14-2.91-2.72-4.68-.58-1.76-.87-3.66-.87-5.69Zm21.1-17.98c-1.45,0-2.83.29-4.13.87-1.31.58-2.47,1.38-3.48,2.39-1.02,1.02-1.9,2.21-2.65,3.59-.75,1.38-1.29,2.86-1.63,4.46,5.8-.19,10.02-.89,12.65-2.1,2.63-1.21,3.95-3.02,3.95-5.44,0-.97-.35-1.84-1.05-2.61-.7-.77-1.92-1.16-3.66-1.16Z"/>
    </g>
    <g>
      <path class="cls-1" d="m301.39,136.07c2.17-.49,4.14-.82,5.91-1,1.77-.18,3.52-.27,5.25-.27,6.78,0,11.8,1.64,15.08,4.92,3.28,3.28,4.92,7.93,4.92,13.96,0,4.08-.67,7.83-1.99,11.27-1.33,3.43-3.29,6.39-5.88,8.87-2.59,2.48-5.81,4.41-9.67,5.78-3.85,1.37-8.31,2.06-13.36,2.06-.89,0-1.83-.03-2.82-.1-1-.07-1.97-.14-2.92-.23-.95-.09-1.87-.21-2.76-.37-.89-.16-1.66-.34-2.33-.57l10.57-44.34Zm-5.31,41.21c1.11.18,2.17.3,3.19.37,1.02.07,2.04.1,3.06.1,4.16,0,7.83-.61,10.99-1.83,3.17-1.22,5.81-2.89,7.94-5.02,2.12-2.13,3.73-4.64,4.82-7.54,1.08-2.9,1.63-6.06,1.63-9.47,0-5.1-1.27-8.91-3.82-11.43-2.55-2.53-6.52-3.79-11.92-3.79-1.11,0-2.22.04-3.35.13s-2.27.22-3.42.4l-9.11,38.09Z"/>
      <path class="cls-1" d="m358.97,181.67c-.27-.53-.5-1.14-.7-1.83-.2-.69-.34-1.38-.43-2.09-1.55,1.51-3.19,2.62-4.89,3.32-1.71.71-3.48,1.06-5.29,1.06-1.42,0-2.78-.24-4.06-.73-1.29-.49-2.42-1.24-3.4-2.26-.98-1.02-1.77-2.34-2.37-3.96-.6-1.62-.9-3.53-.9-5.75,0-3.54.58-6.76,1.73-9.64,1.15-2.88,2.76-5.33,4.82-7.34,2.06-2.02,4.5-3.58,7.32-4.69,2.82-1.11,5.89-1.66,9.21-1.66,2.75,0,5.39.47,7.92,1.4l-5.12,20.67c-.27,1.11-.49,2.15-.67,3.12-.18.98-.27,1.91-.27,2.79,0,1.2.11,2.33.33,3.39.22,1.06.62,2.24,1.2,3.52l-4.44.67Zm3.86-31.04c-.8-.18-1.53-.31-2.2-.4s-1.35-.13-2.06-.13c-2.75,0-5.19.53-7.33,1.6s-3.93,2.46-5.39,4.19c-1.47,1.73-2.59,3.7-3.36,5.92-.78,2.22-1.17,4.48-1.17,6.78,0,1.82.18,3.33.53,4.55.36,1.22.84,2.19,1.47,2.92s1.34,1.26,2.17,1.6c.82.33,1.7.5,2.63.5,1.82,0,3.53-.43,5.13-1.3s3.11-2.09,4.53-3.69c0-1.2.18-2.57.53-4.12.35-1.55.69-2.95,1-4.19l3.52-14.22Z"/>
      <path class="cls-1" d="m380.9,136.8l4.51-.8-2.56,10.9h12.11l-.87,3.72h-12.21l-4.05,16.82c-.22.8-.41,1.65-.56,2.56-.16.91-.23,1.81-.23,2.69,0,2,.49,3.39,1.47,4.19s2.2,1.2,3.67,1.2,2.66-.15,3.7-.46c1.05-.31,2.15-.73,3.3-1.26l.4,3.92c-1.2.49-2.54.91-4.03,1.26-1.49.35-2.97.53-4.43.53-1.15,0-2.24-.13-3.27-.4-1.02-.27-1.92-.71-2.7-1.33-.78-.62-1.4-1.44-1.86-2.46s-.7-2.3-.7-3.86c0-1.91.31-4.1.93-6.58l7.38-30.64Z"/>
      <path class="cls-1" d="m418.73,181.67c-.27-.53-.5-1.14-.7-1.83-.2-.69-.34-1.38-.43-2.09-1.55,1.51-3.19,2.62-4.89,3.32-1.71.71-3.48,1.06-5.29,1.06-1.42,0-2.78-.24-4.06-.73-1.29-.49-2.42-1.24-3.4-2.26-.98-1.02-1.77-2.34-2.37-3.96-.6-1.62-.9-3.53-.9-5.75,0-3.54.58-6.76,1.73-9.64,1.15-2.88,2.76-5.33,4.82-7.34,2.06-2.02,4.5-3.58,7.32-4.69,2.82-1.11,5.89-1.66,9.21-1.66,2.75,0,5.39.47,7.92,1.4l-5.12,20.67c-.27,1.11-.49,2.15-.67,3.12-.18.98-.27,1.91-.27,2.79,0,1.2.11,2.33.33,3.39.22,1.06.62,2.24,1.2,3.52l-4.44.67Zm3.86-31.04c-.8-.18-1.53-.31-2.2-.4s-1.35-.13-2.06-.13c-2.75,0-5.19.53-7.33,1.6s-3.93,2.46-5.39,4.19c-1.47,1.73-2.59,3.7-3.36,5.92-.78,2.22-1.17,4.48-1.17,6.78,0,1.82.18,3.33.53,4.55.36,1.22.84,2.19,1.47,2.92s1.34,1.26,2.17,1.6c.82.33,1.7.5,2.63.5,1.82,0,3.53-.43,5.13-1.3s3.11-2.09,4.53-3.69c0-1.2.18-2.57.53-4.12.35-1.55.69-2.95,1-4.19l3.52-14.22Z"/>
      <path class="cls-1" d="m441.94,148.77c1.33-.89,2.75-1.55,4.26-1.99,1.51-.44,2.99-.67,4.46-.67,3.77,0,6.56,1.15,8.38,3.46,1.82,2.3,2.73,5.43,2.73,9.37,0,2.84-.49,5.64-1.46,8.41-.97,2.77-2.41,5.24-4.32,7.41-1.9,2.17-4.27,3.93-7.11,5.28-2.84,1.35-6.11,2.03-9.83,2.03-3.15,0-6.14-.64-8.97-1.93l11.9-49.66,4.52-.8-4.55,19.08Zm-6.82,28.58c1.59.49,3.17.73,4.72.73,2.88,0,5.41-.58,7.61-1.73,2.19-1.15,4.02-2.64,5.48-4.45,1.46-1.82,2.57-3.83,3.32-6.05.75-2.21,1.13-4.41,1.13-6.58,0-3.19-.7-5.52-2.09-6.98-1.39-1.46-3.15-2.19-5.27-2.19-1.41,0-2.93.32-4.54.96-1.62.64-3.19,1.56-4.74,2.76l-5.61,23.53Z"/>
      <path class="cls-1" d="m488.19,181.67c-.27-.53-.5-1.14-.7-1.83-.2-.69-.34-1.38-.43-2.09-1.55,1.51-3.19,2.62-4.89,3.32-1.71.71-3.48,1.06-5.29,1.06-1.42,0-2.78-.24-4.06-.73-1.29-.49-2.42-1.24-3.4-2.26-.98-1.02-1.77-2.34-2.37-3.96-.6-1.62-.9-3.53-.9-5.75,0-3.54.58-6.76,1.73-9.64,1.15-2.88,2.76-5.33,4.82-7.34,2.06-2.02,4.5-3.58,7.32-4.69,2.82-1.11,5.89-1.66,9.21-1.66,2.75,0,5.39.47,7.92,1.4l-5.12,20.67c-.27,1.11-.49,2.15-.67,3.12-.18.98-.27,1.91-.27,2.79,0,1.2.11,2.33.33,3.39.22,1.06.62,2.24,1.2,3.52l-4.44.67Zm3.86-31.04c-.8-.18-1.53-.31-2.2-.4s-1.35-.13-2.06-.13c-2.75,0-5.19.53-7.33,1.6s-3.93,2.46-5.39,4.19c-1.47,1.73-2.59,3.7-3.36,5.92-.78,2.22-1.17,4.48-1.17,6.78,0,1.82.18,3.33.53,4.55.36,1.22.84,2.19,1.47,2.92s1.34,1.26,2.17,1.6c.82.33,1.7.5,2.63.5,1.82,0,3.53-.43,5.13-1.3s3.11-2.09,4.53-3.69c0-1.2.18-2.57.53-4.12.35-1.55.69-2.95,1-4.19l3.52-14.22Z"/>
      <path class="cls-1" d="m499.39,175.82c1.64.89,3.08,1.49,4.32,1.79,1.24.31,2.64.46,4.19.46,1.11,0,2.17-.12,3.19-.37,1.02-.24,1.91-.61,2.66-1.1.75-.49,1.35-1.13,1.79-1.93.44-.8.66-1.73.66-2.79,0-1.15-.32-2.1-.96-2.86-.64-.75-1.44-1.41-2.39-1.96-.95-.55-1.98-1.1-3.09-1.63-1.11-.53-2.14-1.15-3.09-1.86-.95-.71-1.75-1.59-2.39-2.66-.64-1.06-.96-2.44-.96-4.12,0-1.9.35-3.53,1.06-4.89.71-1.35,1.66-2.46,2.86-3.32s2.57-1.5,4.12-1.89c1.55-.4,3.15-.6,4.79-.6,1.42,0,2.83.12,4.22.37,1.4.24,2.74.61,4.02,1.1l-1.73,3.86c-.93-.4-1.99-.72-3.19-.96-1.2-.24-2.44-.37-3.72-.37-1.06,0-2.09.11-3.09.33-1,.22-1.87.59-2.62,1.1-.75.51-1.36,1.15-1.83,1.93s-.7,1.72-.7,2.83.32,2.11.96,2.86c.64.75,1.43,1.42,2.36,1.99s1.96,1.12,3.09,1.63c1.13.51,2.16,1.12,3.09,1.83.93.71,1.72,1.56,2.36,2.56.64,1,.96,2.27.96,3.82,0,1.95-.37,3.63-1.1,5.05-.73,1.42-1.7,2.57-2.89,3.46-1.2.89-2.57,1.54-4.12,1.96-1.55.42-3.15.63-4.79.63-1.73,0-3.46-.19-5.19-.57s-3.3-.96-4.72-1.76l1.86-3.92Z"/>
      <path class="cls-1" d="m556.82,154.95c0,2.48-.61,4.5-1.83,6.05-1.22,1.55-2.92,2.78-5.12,3.69-2.19.91-4.83,1.56-7.91,1.96-3.08.4-6.5.69-10.27.86v1.4c0,1.29.13,2.48.4,3.59.27,1.11.75,2.07,1.46,2.89.71.82,1.7,1.47,2.96,1.96,1.26.49,2.89.73,4.89.73,1.55,0,3.11-.22,4.69-.67,1.57-.44,3.07-1.11,4.49-1.99l.46,3.99c-1.51.84-3.17,1.5-4.99,1.96-1.82.47-3.66.7-5.52.7-2.44,0-4.49-.31-6.15-.93-1.66-.62-3.01-1.48-4.05-2.59-1.04-1.11-1.78-2.44-2.23-3.99-.44-1.55-.66-3.26-.66-5.12,0-2.83.43-5.65,1.3-8.44.86-2.79,2.14-5.29,3.82-7.51,1.68-2.22,3.75-4,6.21-5.35,2.46-1.35,5.26-2.03,8.41-2.03s5.48.81,7.15,2.43c1.66,1.62,2.49,3.76,2.49,6.41Zm-10.04-4.92c-1.77,0-3.44.37-4.99,1.1-1.55.73-2.95,1.72-4.19,2.96-1.24,1.24-2.32,2.68-3.22,4.32-.91,1.64-1.58,3.37-2.03,5.18,3.77-.09,6.94-.33,9.51-.73,2.57-.4,4.64-.95,6.21-1.66,1.57-.71,2.69-1.56,3.36-2.56.67-1,1-2.14,1-3.42,0-1.73-.52-3.02-1.56-3.89-1.04-.86-2.4-1.3-4.09-1.3Z"/>
    </g>
  </g>
</svg>