<svg viewBox="0 0 600 400" xmlns="http://www.w3.org/2000/svg">
<g transform="translate(72, 364)">
<g>
<g>
<path d="M0,-226.66667 L0,-226.66667 L12,-117.111115 L24,-222.88889 L36,-113.333336 L48,-7.5555553 L60,-219.11111 L72,-175.90277 L84,-113.333336 L96,-120.888885 L108,-170 L120,-113.333336 L132,-113.333336 L144,-113.333336 L156,-226.66667 L168,-175.90277 L180,-0 L192,-113.333336 L204,-226.66667 L216,-226.66667 L228,-113.333336 L240,-328.66666 L252,-73.90278 L264,-215.33333 L276,-226.66667 L288,-226.66667 L300,-124.666664 L312,-215.33333 L324,-226.66667 L336,-289.2361 L348,-226.66667 L360,-226.66667 L372,-226.66667 L384,-226.66667 L396,-340 L408,-175.90277 L420,-226.66667 L432,-226.66667 L444,-238" fill="none" stroke="burlywood" stroke-linejoin="round" stroke-width="2"/>
</g>
</g>
<g>
<g>
<line stroke="black" stroke-width="1" x1="0" x2="0" y1="0" y2="10"/>
<line stroke="black" stroke-width="1" x1="96" x2="96" y1="0" y2="10"/>
<line stroke="black" stroke-width="1" x1="192" x2="192" y1="0" y2="10"/>
<line stroke="black" stroke-width="1" x1="288" x2="288" y1="0" y2="10"/>
<line stroke="black" stroke-width="1" x1="384" x2="384" y1="0" y2="10"/>
<line stroke="black" stroke-width="1" x1="480" x2="480" y1="0" y2="10"/>
</g>
<line stroke="black" stroke-width="1" x1="0" x2="480" y1="0" y2="0"/>
<g>
<text font-size="12" text-anchor="middle" x="0" y="20">
0
</text>
<text font-size="12" text-anchor="middle" x="96" y="20">
4
</text>
<text font-size="12" text-anchor="middle" x="192" y="20">
8
</text>
<text font-size="12" text-anchor="middle" x="288" y="20">
12
</text>
<text font-size="12" text-anchor="middle" x="384" y="20">
16
</text>
<text font-size="12" text-anchor="middle" x="480" y="20">
20
</text>
</g>
<text font-size="12" text-anchor="middle" x="240" y="30">
Time (s)
</text>
</g>
<g>
<g>
<line stroke="black" stroke-width="1" x1="0" x2="-10" y1="-0" y2="-0"/>
<line stroke="black" stroke-width="1" x1="0" x2="-10" y1="-73.78472222222223" y2="-73.78472222222223"/>
<line stroke="black" stroke-width="1" x1="0" x2="-10" y1="-147.56944444444446" y2="-147.56944444444446"/>
<line stroke="black" stroke-width="1" x1="0" x2="-10" y1="-221.35416666666666" y2="-221.35416666666666"/>
<line stroke="black" stroke-width="1" x1="0" x2="-10" y1="-295.1388888888889" y2="-295.1388888888889"/>
</g>
<line stroke="black" stroke-width="1" x1="0" x2="0" y1="0" y2="-340"/>
<g>
<text dominant-baseline="middle" font-size="12" text-anchor="end" x="-15" y="-0">
184320
</text>
<text dominant-baseline="middle" font-size="12" text-anchor="end" x="-15" y="-73.78472222222223">
224320
</text>
<text dominant-baseline="middle" font-size="12" text-anchor="end" x="-15" y="-147.56944444444446">
264320
</text>
<text dominant-baseline="middle" font-size="12" text-anchor="end" x="-15" y="-221.35416666666666">
304320
</text>
<text dominant-baseline="middle" font-size="12" text-anchor="end" x="-15" y="-295.1388888888889">
344320
</text>
</g>
<text font-size="12" text-anchor="middle" transform="rotate(-90 -72 -170)" x="-72" y="-182">
Throughput (rows/s)
</text>
</g>
</g>
</svg>