<svg id="SvgjsSvg1006" width="575" height="469" xmlns="http://www.w3.org/2000/svg" version="1.1" xmlns:xlink="http://www.w3.org/1999/xlink" xmlns:svgjs="http://svgjs.com/svgjs"><defs id="SvgjsDefs1007"><marker id="SvgjsMarker1028" markerWidth="14" markerHeight="10" refX="10" refY="5" viewBox="0 0 14 10" orient="auto" markerUnits="userSpaceOnUse" stroke-dasharray="0,0"><path id="SvgjsPath1029" d="M0,0 L14,5 L0,10 L0,0" fill="#323232" stroke="#323232" stroke-width="1"></path></marker><marker id="SvgjsMarker1032" markerWidth="14" markerHeight="10" refX="10" refY="5" viewBox="0 0 14 10" orient="auto" markerUnits="userSpaceOnUse" stroke-dasharray="0,0"><path id="SvgjsPath1033" d="M0,0 L14,5 L0,10 L0,0" fill="#323232" stroke="#323232" stroke-width="1"></path></marker><marker id="SvgjsMarker1064" markerWidth="14" markerHeight="10" refX="10" refY="5" viewBox="0 0 14 10" orient="auto" markerUnits="userSpaceOnUse" stroke-dasharray="0,0"><path id="SvgjsPath1065" d="M0,0 L14,5 L0,10 L0,0" fill="#323232" stroke="#323232" stroke-width="1"></path></marker><marker id="SvgjsMarker1068" markerWidth="14" markerHeight="10" refX="10" refY="5" viewBox="0 0 14 10" orient="auto" markerUnits="userSpaceOnUse" stroke-dasharray="0,0"><path id="SvgjsPath1069" d="M0,0 L14,5 L0,10 L0,0" fill="#323232" stroke="#323232" stroke-width="1"></path></marker><marker id="SvgjsMarker1072" markerWidth="14" markerHeight="10" refX="10" refY="5" viewBox="0 0 14 10" orient="auto" markerUnits="userSpaceOnUse" stroke-dasharray="0,0"><path id="SvgjsPath1073" d="M0,0 L14,5 L0,10 L0,0" fill="#323232" stroke="#323232" stroke-width="1"></path></marker><marker id="SvgjsMarker1076" markerWidth="14" markerHeight="10" refX="10" refY="5" viewBox="0 0 14 10" orient="auto" markerUnits="userSpaceOnUse" stroke-dasharray="0,0"><path id="SvgjsPath1077" d="M0,0 L14,5 L0,10 L0,0" fill="#323232" stroke="#323232" stroke-width="1"></path></marker></defs><g id="SvgjsG1008" transform="translate(25,25)"><path id="SvgjsPath1009" d="M 0 4Q 0 0 4 0L 521 0Q 525 0 525 4L 525 64Q 525 68 521 68L 4 68Q 0 68 0 64Z" stroke="rgba(50,50,50,1)" stroke-width="2" fill-opacity="1" fill="#ffffff"></path><g id="SvgjsG1010"><text id="SvgjsText1011" font-family="微软雅黑" text-anchor="middle" font-size="20px" width="505px" fill="#323232" font-weight="400" align="middle" lineHeight="125%" anchor="middle" family="微软雅黑" size="20px" weight="400" font-style="" opacity="1" y="16" transform="rotate(0)"><tspan id="SvgjsTspan1012" dy="25" x="262.5"><tspan id="SvgjsTspan1013" style="text-decoration:;">SourceExecutor</tspan></tspan></text></g></g><g id="SvgjsG1014" transform="translate(25,164)"><path id="SvgjsPath1015" d="M 0 4Q 0 0 4 0L 340 0Q 344 0 344 4L 344 68Q 344 72 340 72L 4 72Q 0 72 0 68Z" stroke="rgba(50,50,50,1)" stroke-width="2" fill-opacity="1" fill="#ffffff"></path><g id="SvgjsG1016"><text id="SvgjsText1017" font-family="微软雅黑" text-anchor="middle" font-size="20px" width="324px" fill="#323232" font-weight="400" align="middle" lineHeight="125%" anchor="middle" family="微软雅黑" size="20px" weight="400" font-style="" opacity="1" y="18" transform="rotate(0)"><tspan id="SvgjsTspan1018" dy="25" x="172"><tspan id="SvgjsTspan1019" style="text-decoration:;">ConnectorSource</tspan></tspan></text></g></g><g id="SvgjsG1020" transform="translate(401,164)"><path id="SvgjsPath1021" d="M 0 4Q 0 0 4 0L 132 0Q 136 0 136 4L 136 68Q 136 72 132 72L 4 72Q 0 72 0 68Z" stroke="rgba(50,50,50,1)" stroke-width="2" fill-opacity="1" fill="#ffffff"></path><g id="SvgjsG1022"><text id="SvgjsText1023" font-family="微软雅黑" text-anchor="middle" font-size="20px" width="116px" fill="#323232" font-weight="400" align="middle" lineHeight="125%" anchor="middle" family="微软雅黑" size="20px" weight="400" font-style="" opacity="1" y="18" transform="rotate(0)"><tspan id="SvgjsTspan1024" dy="25" x="68"><tspan id="SvgjsTspan1025" style="text-decoration:;">StateStore</tspan></tspan></text></g></g><g id="SvgjsG1026"><path id="SvgjsPath1027" d="M469 163L469 127.52857142857141L468.8636363636364 127.52857142857141L468.8636363636364 94.65714285714284" stroke="#323232" stroke-width="2" fill="none" marker-end="url(#SvgjsMarker1028)"></path></g><g id="SvgjsG1030"><path id="SvgjsPath1031" d="M197 163L197 128.5L197 128.5L197 96.6" stroke="#323232" stroke-width="2" fill="none" marker-end="url(#SvgjsMarker1032)"></path><rect id="SvgjsRect1034" width="79" height="23" x="157.5" y="118.30000000000001" fill="#ffffff"></rect><text id="SvgjsText1035" font-family="微软雅黑" text-anchor="middle" font-size="18px" width="79px" fill="#323232" font-weight="400" align="top" lineHeight="23px" anchor="middle" family="微软雅黑" size="18px" weight="400" font-style="" opacity="1" y="114.05000000000001" transform="rotate(0)"><tspan id="SvgjsTspan1036" dy="22" x="197"><tspan id="SvgjsTspan1037" style="text-decoration:;">data chunk</tspan></tspan></text></g><g id="SvgjsG1038" transform="translate(25,307)"><path id="SvgjsPath1039" d="M 0 4Q 0 0 4 0L 67 0Q 71 0 71 4L 71 133Q 71 137 67 137L 4 137Q 0 137 0 133Z" stroke="rgba(50,50,50,1)" stroke-width="2" fill-opacity="1" fill="#ffffff"></path><g id="SvgjsG1040"><text id="SvgjsText1041" font-family="微软雅黑" text-anchor="middle" font-size="19px" width="51px" fill="#323232" font-weight="400" align="middle" lineHeight="125%" anchor="middle" family="微软雅黑" size="19px" weight="400" font-style="" opacity="1" y="52.125" transform="rotate(0)"><tspan id="SvgjsTspan1042" dy="23" x="35.5"><tspan id="SvgjsTspan1043" style="text-decoration:;">kafka</tspan></tspan></text></g></g><g id="SvgjsG1044" transform="translate(116,307)"><path id="SvgjsPath1045" d="M 0 4Q 0 0 4 0L 67 0Q 71 0 71 4L 71 133Q 71 137 67 137L 4 137Q 0 137 0 133Z" stroke="rgba(50,50,50,1)" stroke-width="2" fill-opacity="1" fill="#ffffff"></path><g id="SvgjsG1046"><text id="SvgjsText1047" font-family="微软雅黑" text-anchor="middle" font-size="18px" width="51px" fill="#323232" font-weight="400" align="middle" lineHeight="125%" anchor="middle" family="微软雅黑" size="18px" weight="400" font-style="" opacity="1" y="52.75" transform="rotate(0)"><tspan id="SvgjsTspan1048" dy="22" x="35.5"><tspan id="SvgjsTspan1049" style="text-decoration:;">kinesis</tspan></tspan></text></g></g><g id="SvgjsG1050" transform="translate(207,307)"><path id="SvgjsPath1051" d="M 0 4Q 0 0 4 0L 67 0Q 71 0 71 4L 71 133Q 71 137 67 137L 4 137Q 0 137 0 133Z" stroke="rgba(50,50,50,1)" stroke-width="2" fill-opacity="1" fill="#ffffff"></path><g id="SvgjsG1052"><text id="SvgjsText1053" font-family="微软雅黑" text-anchor="middle" font-size="19px" width="51px" fill="#323232" font-weight="400" align="middle" lineHeight="125%" anchor="middle" family="微软雅黑" size="19px" weight="400" font-style="" opacity="1" y="52.125" transform="rotate(0)"><tspan id="SvgjsTspan1054" dy="23" x="35.5"><tspan id="SvgjsTspan1055" style="text-decoration:;">S3</tspan></tspan></text></g></g><g id="SvgjsG1056" transform="translate(298,307)"><path id="SvgjsPath1057" d="M 0 4Q 0 0 4 0L 67 0Q 71 0 71 4L 71 133Q 71 137 67 137L 4 137Q 0 137 0 133Z" stroke="rgba(50,50,50,1)" stroke-width="2" fill-opacity="1" fill="#ffffff"></path><g id="SvgjsG1058"><text id="SvgjsText1059" font-family="微软雅黑" text-anchor="middle" font-size="19px" width="51px" fill="#323232" font-weight="400" align="middle" lineHeight="125%" anchor="middle" family="微软雅黑" size="19px" weight="400" font-style="" opacity="1" y="52.125" transform="rotate(0)"><tspan id="SvgjsTspan1060" dy="23" x="35.5"><tspan id="SvgjsTspan1061" style="text-decoration:;">...</tspan></tspan></text></g></g><g id="SvgjsG1062"><path id="SvgjsPath1063" d="M60.5 306L60.5 271.5L197 271.5L197 239.60000000000002" stroke="#323232" stroke-width="2" fill="none" marker-end="url(#SvgjsMarker1064)"></path></g><g id="SvgjsG1066"><path id="SvgjsPath1067" d="M151.5 306L151.5 271.5L197 271.5L197 239.60000000000002" stroke="#323232" stroke-width="2" fill="none" marker-end="url(#SvgjsMarker1068)"></path></g><g id="SvgjsG1070"><path id="SvgjsPath1071" d="M242.5 306L242.5 271.5L197 271.5L197 239.60000000000002" stroke="#323232" stroke-width="2" fill="none" marker-end="url(#SvgjsMarker1072)"></path></g><g id="SvgjsG1074"><path id="SvgjsPath1075" d="M333.5 306L333.5 271.5L197 271.5L197 239.60000000000002" stroke="#323232" stroke-width="2" fill="none" marker-end="url(#SvgjsMarker1076)"></path></g><g id="SvgjsG1078" transform="translate(182.5,244)"><path id="SvgjsPath1079" d="M 0 0L 120 0L 120 40L 0 40Z" stroke="none" fill="none"></path><g id="SvgjsG1080"><text id="SvgjsText1081" font-family="微软雅黑" text-anchor="middle" font-size="19px" width="120px" fill="#323232" font-weight="400" align="middle" lineHeight="125%" anchor="middle" family="微软雅黑" size="19px" weight="400" font-style="" opacity="1" y="3.625" transform="rotate(0)"><tspan id="SvgjsTspan1082" dy="23" x="60"><tspan id="SvgjsTspan1083" style="text-decoration:;">raw data</tspan></tspan></text></g></g><style>svg { background-color: white; color-scheme:light dark;}</style></svg>